# 3ds Max Wavefront OBJ Exporter v0.97b - (c)2007 guruware
# File Created: 08.06.2018 13:18:10

#
# object Box001
#

v  -5.8412 159.6841 -4.2411
v  5.2563 159.6841 -4.2411
v  5.2563 5.7966 -4.2412
v  -5.8412 5.7966 -4.2412
v  5.2563 5.7966 4.1603
v  5.2563 159.6841 4.1604
v  -5.8412 159.6841 4.1604
v  -5.8412 5.7966 4.1603
v  5.2563 4.0366 -2.9991
v  5.2563 4.0366 2.9183
v  -5.8412 4.0366 2.9183
v  -5.8412 4.0366 -2.9991
v  6.8374 159.6841 -2.9991
v  6.8374 159.6841 2.9183
v  6.8374 5.7966 2.9183
v  6.8374 5.7966 -2.9991
v  -5.8412 161.4440 -2.9991
v  -5.8412 161.4440 2.9183
v  5.2563 161.4440 2.9183
v  5.2563 161.4440 -2.9991
v  -7.4223 5.7966 -2.9991
v  -7.4223 5.7966 2.9183
v  -7.4223 159.6841 2.9183
v  -7.4223 159.6841 -2.9991
v  -5.8412 4.9166 -3.6201
v  -6.3682 5.2100 -3.4131
v  -6.6317 5.7966 -3.6201
v  -6.6317 159.6841 -3.6201
v  -6.3682 160.2707 -3.4131
v  -5.8412 160.5640 -3.6201
v  5.2563 160.5640 -3.6201
v  5.7834 160.2707 -3.4131
v  6.0469 159.6841 -3.6201
v  6.0469 5.7966 -3.6201
v  5.7834 5.2100 -3.4131
v  5.2563 4.9166 -3.6201
v  -6.6317 5.7966 3.5393
v  -6.3682 5.2100 3.3323
v  -5.8412 4.9166 3.5393
v  5.2563 4.9166 3.5393
v  5.7834 5.2100 3.3323
v  6.0469 5.7966 3.5393
v  6.0469 159.6841 3.5393
v  5.7834 160.2707 3.3323
v  5.2563 160.5640 3.5393
v  -5.8412 160.5640 3.5393
v  -6.3682 160.2707 3.3323
v  -6.6317 159.6841 3.5393
v  -6.6317 4.9166 -2.9991
v  6.0469 4.9166 -2.9991
v  6.0469 4.9166 2.9183
v  -6.6317 4.9166 2.9183
v  6.0469 160.5640 -2.9991
v  6.0469 160.5640 2.9183
v  -6.6317 160.5640 -2.9991
v  -6.6317 160.5640 2.9183
v  -11.9254 160.0034 -9.4635
v  -11.9254 184.1348 -9.4635
v  11.9254 184.1348 -9.4635
v  11.9254 160.0034 -9.4635
v  -11.9254 160.0034 9.4635
v  11.9254 160.0034 9.4635
v  11.9254 184.1348 9.4635
v  -11.9254 184.1348 9.4635
v  24.6368 161.0029 -7.0555
v  24.6368 183.1352 -7.0555
v  24.6368 183.1352 7.0556
v  24.6368 161.0029 7.0555
v  -24.6368 183.1352 -7.0555
v  -24.6368 161.0029 -7.0555
v  -24.6368 161.0029 7.0555
v  -24.6368 183.1352 7.0556
v  11.9618 184.1130 -9.4109
v  12.4733 183.1352 -8.6717
v  12.4733 161.0029 -8.6717
v  11.9618 160.0251 -9.4109
v  11.9618 184.1130 9.4110
v  12.4733 183.8061 7.0556
v  12.4733 183.8061 -7.0555
v  11.9618 160.0251 9.4110
v  12.4733 161.0029 8.6717
v  12.4733 183.1352 8.6717
v  12.4733 160.3320 -7.0555
v  12.4733 160.3320 7.0555
v  -11.9618 160.0251 -9.4109
v  -12.4733 161.0029 -8.6717
v  -12.4733 183.1352 -8.6717
v  -11.9618 184.1130 -9.4109
v  -11.9618 160.0251 9.4110
v  -12.4733 160.3320 7.0555
v  -12.4733 160.3320 -7.0555
v  -11.9618 184.1130 9.4110
v  -12.4733 183.1352 8.6717
v  -12.4733 161.0029 8.6717
v  -12.4733 183.8061 -7.0555
v  -12.4733 183.8061 7.0556
v  23.9659 183.1352 -8.6717
v  23.9659 161.0029 -8.6717
v  23.9659 183.8061 7.0556
v  23.9659 183.8061 -7.0555
v  23.9659 161.0029 8.6717
v  23.9659 183.1352 8.6717
v  23.9659 160.3320 -7.0555
v  23.9659 160.3320 7.0555
v  -23.9659 161.0029 -8.6717
v  -23.9659 183.1352 -8.6717
v  -23.9659 160.3320 7.0555
v  -23.9659 160.3320 -7.0555
v  -23.9659 183.1352 8.6717
v  -23.9659 161.0029 8.6717
v  -23.9659 183.8061 -7.0555
v  -23.9659 183.8061 7.0556
# 112 vertices

vn 0.0000 0.0000 -1.0000
vn 0.0000 -0.0000 1.0000
vn 0.0000 -1.0000 -0.0000
vn 1.0000 0.0000 -0.0000
vn 0.0000 1.0000 0.0000
vn -1.0000 0.0000 -0.0000
vn -0.5773 -0.5774 -0.5773
vn -0.5774 -0.5773 -0.5774
vn -0.5774 -0.5774 -0.5774
vn -0.5774 0.5774 -0.5773
vn -0.5773 0.5774 -0.5773
vn -0.5774 0.5773 -0.5774
vn 0.5773 0.5774 -0.5774
vn 0.5774 0.5774 -0.5774
vn 0.5774 0.5773 -0.5774
vn 0.5774 -0.5774 -0.5773
vn 0.5773 -0.5774 -0.5773
vn 0.5774 -0.5774 -0.5774
vn 0.5774 -0.5773 -0.5774
vn -0.5773 -0.5774 0.5773
vn -0.5774 -0.5774 0.5773
vn -0.5774 -0.5773 0.5774
vn 0.5773 -0.5774 0.5774
vn 0.5774 -0.5774 0.5773
vn 0.5774 -0.5773 0.5774
vn 0.5773 0.5774 0.5773
vn 0.5774 0.5774 0.5774
vn 0.5774 0.5773 0.5774
vn -0.5773 0.5774 0.5774
vn -0.5774 0.5774 0.5774
vn -0.5774 0.5773 0.5774
vn 0.5773 -0.5774 0.5773
vn 0.5773 -0.5774 -0.5774
vn 0.5774 0.5774 -0.5773
vn 0.5773 0.5774 0.5774
vn -0.5774 0.5774 0.5773
vn -0.5773 -0.5774 -0.5774
vn -0.7071 0.0000 -0.7071
vn 0.0000 0.7071 -0.7071
vn 0.7071 0.0000 -0.7071
vn 0.0000 -0.7071 -0.7071
vn 0.0000 -0.7071 0.7071
vn 0.7071 -0.0000 0.7071
vn 0.0000 0.7071 0.7071
vn -0.7071 -0.0000 0.7071
vn 0.7071 -0.7071 -0.0000
vn -0.7071 -0.7071 -0.0000
vn 0.7071 0.7071 0.0000
vn -0.7071 0.7071 0.0000
vn 0.8786 0.0000 -0.4776
vn 0.8786 -0.0000 -0.4776
vn 0.4744 0.8803 0.0000
vn 0.4745 0.8803 0.0000
vn 0.4743 0.8804 0.0000
vn 0.8786 -0.0000 0.4776
vn 0.8786 0.0000 0.4776
vn 0.4743 -0.8804 0.0000
vn 0.4744 -0.8803 -0.0000
vn 0.4744 -0.8803 0.0000
vn -0.8786 -0.0000 -0.4776
vn -0.8786 0.0000 -0.4776
vn -0.4744 -0.8803 0.0000
vn -0.4745 -0.8803 0.0000
vn -0.4744 -0.8803 -0.0000
vn -0.4743 -0.8804 0.0000
vn -0.8786 0.0000 0.4776
vn -0.8786 -0.0000 0.4776
vn -0.4743 0.8804 0.0000
vn -0.4744 0.8803 0.0000
vn 0.9078 -0.4024 -0.1179
vn 0.9078 0.4024 -0.1179
vn 0.9078 0.4024 0.1179
vn 0.9078 -0.4024 0.1179
vn -0.9078 0.4024 -0.1179
vn -0.9078 -0.4024 -0.1179
vn -0.9078 -0.4024 0.1179
vn -0.9078 0.4024 0.1179
vn 0.6530 -0.7268 -0.2129
vn 0.6530 0.7268 -0.2129
vn 0.6530 0.7268 0.2129
vn 0.6530 -0.7268 0.2129
vn -0.6530 0.7268 -0.2129
vn -0.6530 -0.7268 -0.2129
vn -0.6530 -0.7268 0.2129
vn -0.6530 0.7268 0.2129
vn 0.9507 0.0000 -0.3100
vn 0.6683 0.7439 0.0000
vn 0.9507 -0.0000 0.3100
vn 0.6683 -0.7439 -0.0000
vn -0.0000 -0.9597 -0.2811
vn 0.0000 -0.9597 -0.2811
vn -0.0000 0.9597 -0.2811
vn 0.0000 0.9597 -0.2811
vn 0.0000 0.9597 0.2811
vn 0.0000 -0.9597 0.2811
vn -0.9507 0.0000 -0.3100
vn -0.6683 -0.7439 -0.0000
vn -0.9507 -0.0000 0.3100
vn -0.6683 0.7439 0.0000
# 99 vertex normals

vt 0.1092 0.7947 -4.1634
vt 0.0470 0.7946 -4.1634
vt 0.0489 0.0200 -4.1634
vt 0.1110 0.0201 -4.1634
vt 0.2695 0.0201 -4.1634
vt 0.2677 0.7947 -4.1634
vt 0.2055 0.7946 -4.1634
vt 0.2073 0.0200 -4.1634
vt 0.7537 0.1614 0.0000
vt 0.7544 0.2065 0.0000
vt 0.6882 0.2061 0.0000
vt 0.6876 0.1609 0.0000
vt 0.3369 0.7947 -4.1634
vt 0.2947 0.7946 -4.1634
vt 0.2965 0.0200 -4.1634
vt 0.3387 0.0201 4.1634
vt 0.8852 0.0304 0.0000
vt 0.8852 0.0798 0.0000
vt 0.8306 0.0798 0.0000
vt 0.8306 0.0304 0.0000
vt 0.1381 0.0200 -4.1634
vt 0.1803 0.0201 -4.1634
vt 0.1785 0.7947 -4.1634
vt 0.1363 0.7946 -4.1634
vt 0.6848 0.1468 0.0000
vt 0.6860 0.1542 0.0000
vt 0.6816 0.1554 0.0000
vt 0.6784 0.1521 0.0000
vt 0.2140 0.9776 0.0000
vt 0.2382 0.9776 0.0000
vt 0.2382 0.9800 0.0000
vt 0.2140 0.9800 0.0000
vt 0.0442 0.9776 0.0000
vt 0.0442 0.9800 0.0000
vt 0.0200 0.9800 0.0000
vt 0.0200 0.9776 0.0000
vt 0.7562 0.1470 0.0000
vt 0.7626 0.1523 0.0000
vt 0.7593 0.1555 0.0000
vt 0.7550 0.1544 0.0000
vt 0.6857 0.2205 0.0000
vt 0.6794 0.2151 0.0000
vt 0.6826 0.2119 0.0000
vt 0.6869 0.2131 0.0000
vt 0.7571 0.2206 0.0000
vt 0.7560 0.2132 0.0000
vt 0.7603 0.2121 0.0000
vt 0.7635 0.2153 0.0000
vt 0.5481 0.8831 0.0000
vt 0.5723 0.8831 0.0000
vt 0.5723 0.8856 0.0000
vt 0.5481 0.8856 0.0000
vt 0.3783 0.8831 0.0000
vt 0.3783 0.8856 0.0000
vt 0.3542 0.8856 0.0000
vt 0.3542 0.8831 0.0000
vt 0.6805 0.1597 0.0000
vt 0.7605 0.1598 0.0000
vt 0.7614 0.2077 0.0000
vt 0.6814 0.2076 0.0000
vt 0.7679 0.1586 0.0000
vt 0.8171 0.3645 0.0000
vt 0.8171 0.3373 0.0000
vt 0.8191 0.3373 0.0000
vt 0.8191 0.3645 0.0000
vt 0.8171 0.4942 0.0000
vt 0.8191 0.4942 0.0000
vt 0.8191 0.5215 0.0000
vt 0.8171 0.5215 0.0000
vt 0.7690 0.2088 0.0000
vt 0.8228 0.0304 0.0000
vt 0.8228 0.0200 0.0000
vt 0.8306 0.0200 0.0000
vt 0.8852 0.0200 0.0000
vt 0.8930 0.0200 0.0000
vt 0.8930 0.0304 0.0000
vt 0.8930 0.0798 0.0000
vt 0.8930 0.0902 0.0000
vt 0.8852 0.0902 0.0000
vt 0.8306 0.0902 0.0000
vt 0.8228 0.0902 0.0000
vt 0.8228 0.0798 0.0000
vt 0.8366 0.3645 0.0000
vt 0.8346 0.3645 0.0000
vt 0.8346 0.3373 0.0000
vt 0.8366 0.3373 0.0000
vt 0.6729 0.1586 0.0000
vt 0.6740 0.2088 0.0000
vt 0.8366 0.4942 0.0000
vt 0.8366 0.5214 0.0000
vt 0.8346 0.5214 0.0000
vt 0.8346 0.4942 0.0000
vt 0.1245 0.0201 -4.1634
vt 0.1227 0.7947 -4.1634
vt 0.0335 0.7946 -4.1634
vt 0.0353 0.0201 -4.1634
vt 0.2830 0.0201 -4.1634
vt 0.2812 0.7947 -4.1634
vt 0.1920 0.7946 -4.1634
vt 0.1938 0.0201 -4.1634
vt 0.0200 0.7947 -4.1634
vt 0.0218 0.0201 4.1634
vt 0.4061 0.1663 0.0000
vt 0.5009 0.0712 0.0000
vt 0.6055 0.1756 0.0000
vt 0.5107 0.2706 0.0000
vt 0.4486 0.6351 0.0000
vt 0.6147 0.6466 0.0000
vt 0.6042 0.7976 0.0000
vt 0.4381 0.7860 0.0000
vt 0.0957 0.8102 0.0000
vt 0.2447 0.8116 0.0000
vt 0.2432 0.9621 0.0000
vt 0.0942 0.9607 0.0000
vt 0.6728 0.3373 0.0000
vt 0.7960 0.3373 0.0000
vt 0.7960 0.4487 0.0000
vt 0.6728 0.4487 0.0000
vt 0.5086 0.5816 0.0000
vt 0.3973 0.4825 0.0000
vt 0.4973 0.3701 0.0000
vt 0.6086 0.4691 0.0000
vt 0.8018 0.1314 0.0000
vt 0.6785 0.1314 0.0000
vt 0.6785 0.0200 0.0000
vt 0.8018 0.0200 0.0000
vt 0.6058 0.1760 0.0000
vt 0.6066 0.1845 0.0000
vt 0.5213 0.2725 0.0000
vt 0.5128 0.2718 0.0000
vt 0.6087 0.4697 0.0000
vt 0.5988 0.4860 0.0000
vt 0.5276 0.5687 0.0000
vt 0.5130 0.5802 0.0000
vt 0.6152 0.6467 0.0000
vt 0.6231 0.6520 0.0000
vt 0.6132 0.7939 0.0000
vt 0.6064 0.7972 0.0000
vt 0.2451 0.8120 0.0000
vt 0.2484 0.8308 0.0000
vt 0.2491 0.9400 0.0000
vt 0.2457 0.9583 0.0000
vt 0.4059 0.1659 0.0000
vt 0.4050 0.1574 0.0000
vt 0.4904 0.0693 0.0000
vt 0.4989 0.0701 0.0000
vt 0.0938 0.9603 0.0000
vt 0.0905 0.9415 0.0000
vt 0.0899 0.8323 0.0000
vt 0.0933 0.8140 0.0000
vt 0.4376 0.7860 0.0000
vt 0.4297 0.7806 0.0000
vt 0.4396 0.6387 0.0000
vt 0.4464 0.6355 0.0000
vt 0.3972 0.4820 0.0000
vt 0.4071 0.4656 0.0000
vt 0.4784 0.3829 0.0000
vt 0.4929 0.3714 0.0000
vt 0.6575 0.2339 0.0000
vt 0.5721 0.3219 0.0000
vt 0.6517 0.5316 0.0000
vt 0.5805 0.6143 0.0000
vt 0.6863 0.6931 0.0000
vt 0.6693 0.7731 0.0000
vt 0.3183 0.8304 0.0000
vt 0.3190 0.9396 0.0000
vt 0.3542 0.1080 0.0000
vt 0.4395 0.0200 0.0000
vt 0.0207 0.9419 0.0000
vt 0.0200 0.8327 0.0000
vt 0.3665 0.7396 0.0000
vt 0.3835 0.6595 0.0000
vt 0.3542 0.4201 0.0000
vt 0.4254 0.3373 0.0000
vt 0.3544 0.8183 0.0000
vt 0.3596 0.8251 0.0000
vt 0.3542 0.8372 0.0000
vt 0.6181 0.8183 0.0000
vt 0.6183 0.8373 0.0000
vt 0.6128 0.8251 0.0000
vt 0.6218 0.8029 0.0000
vt 0.6367 0.6419 0.0000
vt 0.9780 0.6792 0.0000
vt 0.9728 0.6723 0.0000
vt 0.9782 0.6602 0.0000
vt 0.7143 0.6792 0.0000
vt 0.7141 0.6602 0.0000
vt 0.7195 0.6723 0.0000
vt 0.4310 0.6298 0.0000
vt 0.4161 0.7907 0.0000
vt 0.4246 0.8543 0.0000
vt 0.4246 0.8677 0.0000
vt 0.4192 0.8664 0.0000
vt 0.5533 0.8664 0.0000
vt 0.5478 0.8677 0.0000
vt 0.5478 0.8543 0.0000
vt 0.6777 0.7774 0.0000
vt 0.6744 0.7809 0.0000
vt 0.6962 0.6855 0.0000
vt 0.6986 0.6916 0.0000
vt 0.9078 0.6432 0.0000
vt 0.9078 0.6298 0.0000
vt 0.9132 0.6311 0.0000
vt 0.7791 0.6311 0.0000
vt 0.7845 0.6298 0.0000
vt 0.7845 0.6432 0.0000
vt 0.3751 0.6553 0.0000
vt 0.3784 0.6517 0.0000
vt 0.3566 0.7471 0.0000
vt 0.3542 0.7410 0.0000
vt 0.8016 0.3373 0.0000
vt 0.8016 0.4487 0.0000
vt 0.6672 0.4487 0.0000
vt 0.6672 0.3373 0.0000
vt 0.6729 0.1314 0.0000
vt 0.6729 0.0200 0.0000
vt 0.8074 0.0200 0.0000
vt 0.8074 0.1314 0.0000
# 218 texture coords

g Box001
s 1
f 1/1/1 2/2/1 3/3/1 
f 3/3/1 4/4/1 1/1/1 
f 5/5/2 6/6/2 7/7/2 
f 7/7/2 8/8/2 5/5/2 
f 9/9/3 10/10/3 11/11/3 
f 11/11/3 12/12/3 9/9/3 
f 13/13/4 14/14/4 15/15/4 
f 15/15/4 16/16/4 13/13/4 
f 17/17/5 18/18/5 19/19/5 
f 19/19/5 20/20/5 17/17/5 
f 21/21/6 22/22/6 23/23/6 
f 23/23/6 24/24/6 21/21/6 
s 2
f 4/25/7 25/26/8 26/27/9 
f 26/27/9 27/28/7 4/25/7 
f 1/29/10 28/30/11 29/31/10 
f 29/31/10 30/32/12 1/29/10 
f 2/33/13 31/34/13 32/35/14 
f 32/35/14 33/36/15 2/33/13 
f 3/37/16 34/38/17 35/39/18 
f 35/39/18 36/40/19 3/37/16 
f 8/41/20 37/42/20 38/43/21 
f 38/43/21 39/44/22 8/41/20 
f 5/45/23 40/46/23 41/47/24 
f 41/47/24 42/48/25 5/45/23 
f 6/49/26 43/50/26 44/51/27 
f 44/51/27 45/52/28 6/49/26 
f 7/53/29 46/54/29 47/55/30 
f 47/55/30 48/56/31 7/53/29 
f 12/12/8 49/57/8 26/27/9 
f 26/27/9 25/26/8 12/12/8 
f 9/9/19 36/40/19 35/39/18 
f 35/39/18 50/58/19 9/9/19 
f 10/10/32 51/59/24 41/47/24 
f 41/47/24 40/46/23 10/10/32 
f 11/11/22 39/44/22 38/43/21 
f 38/43/21 52/60/22 11/11/22 
f 16/61/33 50/58/19 35/39/18 
f 35/39/18 34/38/17 16/61/33 
f 13/62/34 33/63/15 32/64/14 
f 32/64/14 53/65/34 13/62/34 
f 14/66/35 54/67/28 44/68/27 
f 44/68/27 43/69/26 14/66/35 
f 15/70/24 42/48/25 41/47/24 
f 41/47/24 51/59/24 15/70/24 
f 20/20/34 53/71/34 32/72/14 
f 32/72/14 31/73/13 20/20/34 
f 17/17/12 30/74/12 29/75/10 
f 29/75/10 55/76/12 17/17/12 
f 18/18/29 56/77/36 47/78/30 
f 47/78/30 46/79/29 18/18/29 
f 19/19/28 45/80/28 44/81/27 
f 44/81/27 54/82/28 19/19/28 
f 24/83/11 55/84/12 29/85/10 
f 29/85/10 28/86/11 24/83/11 
f 21/87/37 27/28/7 26/27/9 
f 26/27/9 49/57/8 21/87/37 
f 22/88/20 52/60/22 38/43/21 
f 38/43/21 37/42/20 22/88/20 
f 23/89/36 48/90/31 47/91/30 
f 47/91/30 56/92/36 23/89/36 
s 4
f 1/1/38 4/4/38 27/93/38 
f 27/93/38 28/94/38 1/1/38 
s 8
f 2/33/39 1/29/39 30/32/39 
f 30/32/39 31/34/39 2/33/39 
s 4
f 3/3/40 2/2/40 33/95/40 
f 33/95/40 34/96/40 3/3/40 
s 8
f 4/25/41 3/37/41 36/40/41 
f 36/40/41 25/26/41 4/25/41 
s 4
f 5/45/42 8/41/42 39/44/42 
f 39/44/42 40/46/42 5/45/42 
s 8
f 6/6/43 5/5/43 42/97/43 
f 42/97/43 43/98/43 6/6/43 
s 4
f 7/53/44 6/49/44 45/52/44 
f 45/52/44 46/54/44 7/53/44 
s 8
f 8/8/45 7/7/45 48/99/45 
f 48/99/45 37/100/45 8/8/45 
f 9/9/41 12/12/41 25/26/41 
f 25/26/41 36/40/41 9/9/41 
s 16
f 10/10/46 9/9/46 50/58/46 
f 50/58/46 51/59/46 10/10/46 
s 4
f 11/11/42 10/10/42 40/46/42 
f 40/46/42 39/44/42 11/11/42 
s 16
f 12/12/47 11/11/47 52/60/47 
f 52/60/47 49/57/47 12/12/47 
s 4
f 13/101/40 16/102/40 34/96/40 
f 34/96/40 33/95/40 13/101/40 
s 16
f 14/66/48 13/62/48 53/65/48 
f 53/65/48 54/67/48 14/66/48 
s 8
f 15/15/43 14/14/43 43/98/43 
f 43/98/43 42/97/43 15/15/43 
s 16
f 16/61/46 15/70/46 51/59/46 
f 51/59/46 50/58/46 16/61/46 
s 8
f 17/17/39 20/20/39 31/73/39 
f 31/73/39 30/74/39 17/17/39 
s 16
f 18/18/49 17/17/49 55/76/49 
f 55/76/49 56/77/49 18/18/49 
s 4
f 19/19/44 18/18/44 46/79/44 
f 46/79/44 45/80/44 19/19/44 
s 16
f 20/20/48 19/19/48 54/82/48 
f 54/82/48 53/71/48 20/20/48 
s 4
f 21/21/38 24/24/38 28/94/38 
f 28/94/38 27/93/38 21/21/38 
s 16
f 22/88/47 21/87/47 49/57/47 
f 49/57/47 52/60/47 22/88/47 
s 8
f 23/23/45 22/22/45 37/100/45 
f 37/100/45 48/99/45 23/23/45 
s 16
f 24/83/49 23/89/49 56/92/49 
f 56/92/49 55/84/49 24/83/49 
s 1
f 57/103/1 58/104/1 59/105/1 
f 59/105/1 60/106/1 57/103/1 
f 61/107/2 62/108/2 63/109/2 
f 63/109/2 64/110/2 61/107/2 
s 2
f 57/111/3 60/112/3 62/113/3 
f 62/113/3 61/114/3 57/111/3 
s 1
f 65/115/4 66/116/4 67/117/4 
f 67/117/4 68/118/4 65/115/4 
s 2
f 59/119/5 58/120/5 64/121/5 
f 64/121/5 63/122/5 59/119/5 
s 1
f 69/123/6 70/124/6 71/125/6 
f 71/125/6 72/126/6 69/123/6 
s 4
f 59/105/50 73/127/50 74/128/50 
f 60/106/51 59/105/50 74/128/50 
f 74/128/50 75/129/50 76/130/51 
f 60/106/51 74/128/50 76/130/51 
s 8
f 63/122/52 77/131/53 78/132/52 
f 59/119/54 63/122/52 78/132/52 
f 78/132/52 79/133/52 73/134/54 
f 59/119/54 78/132/52 73/134/54 
s 4
f 62/108/55 80/135/55 81/136/55 
f 63/109/56 62/108/55 81/136/55 
f 81/136/55 82/137/55 77/138/56 
f 63/109/56 81/136/55 77/138/56 
s 8
f 60/112/57 76/139/57 83/140/58 
f 62/113/59 60/112/57 83/140/58 
f 83/140/58 84/141/58 80/142/59 
f 62/113/59 83/140/58 80/142/59 
s 4
f 57/103/60 85/143/60 86/144/60 
f 58/104/61 57/103/60 86/144/60 
f 86/144/60 87/145/61 88/146/61 
f 58/104/61 86/144/60 88/146/61 
s 8
f 61/114/62 89/147/63 90/148/64 
f 57/111/65 61/114/62 90/148/64 
f 90/148/64 91/149/64 85/150/65 
f 57/111/65 90/148/64 85/150/65 
s 4
f 64/110/66 92/151/66 93/152/66 
f 61/107/67 64/110/66 93/152/66 
f 93/152/66 94/153/67 89/154/67 
f 61/107/67 93/152/66 89/154/67 
s 8
f 58/120/68 88/155/68 95/156/69 
f 64/121/69 58/120/68 95/156/69 
f 95/156/69 96/157/69 92/158/69 
f 64/121/69 95/156/69 92/158/69 
s 1
f 75/129/1 74/128/1 97/159/1 
f 97/159/1 98/160/1 75/129/1 
f 79/133/5 78/132/5 99/161/5 
f 99/161/5 100/162/5 79/133/5 
f 82/137/2 81/136/2 101/163/2 
f 101/163/2 102/164/2 82/137/2 
f 84/141/3 83/140/3 103/165/3 
f 103/165/3 104/166/3 84/141/3 
f 87/145/1 86/144/1 105/167/1 
f 105/167/1 106/168/1 87/145/1 
f 91/149/3 90/148/3 107/169/3 
f 107/169/3 108/170/3 91/149/3 
f 94/153/2 93/152/2 109/171/2 
f 109/171/2 110/172/2 94/153/2 
f 96/157/5 95/156/5 111/173/5 
f 111/173/5 112/174/5 96/157/5 
s 2
f 76/175/70 75/176/70 83/177/70 
f 73/178/71 79/179/71 74/180/71 
f 77/138/72 82/137/72 78/181/72 
f 80/135/73 84/182/73 81/136/73 
f 88/183/74 87/184/74 95/185/74 
f 85/186/75 91/187/75 86/188/75 
f 89/154/76 94/153/76 90/189/76 
f 92/151/77 96/190/77 93/152/77 
f 98/191/78 65/192/78 103/193/78 
f 100/194/79 66/195/79 97/196/79 
f 102/164/80 67/197/80 99/198/80 
f 104/199/81 68/200/81 101/163/81 
f 106/201/82 69/202/82 111/203/82 
f 108/204/83 70/205/83 105/206/83 
f 110/172/84 71/207/84 107/208/84 
f 112/209/85 72/210/85 109/171/85 
s 4
f 65/192/86 98/191/86 97/196/86 
f 97/196/86 66/195/86 65/192/86 
s 8
f 66/116/87 100/211/87 99/212/87 
f 99/212/87 67/117/87 66/116/87 
s 4
f 67/197/88 102/164/88 101/163/88 
f 101/163/88 68/200/88 67/197/88 
s 8
f 68/118/89 104/213/89 103/214/89 
f 103/214/89 65/115/89 68/118/89 
s 16
f 83/177/90 75/176/91 98/191/90 
f 98/191/90 103/193/90 83/177/90 
f 74/180/92 79/179/92 100/194/92 
f 100/194/92 97/196/93 74/180/92 
f 78/181/94 82/137/94 102/164/94 
f 102/164/94 99/198/94 78/181/94 
f 81/136/95 84/182/95 104/199/95 
f 104/199/95 101/163/95 81/136/95 
s 4
f 69/202/96 106/201/96 105/206/96 
f 105/206/96 70/205/96 69/202/96 
s 8
f 70/124/97 108/215/97 107/216/97 
f 107/216/97 71/125/97 70/124/97 
s 4
f 71/207/98 110/172/98 109/171/98 
f 109/171/98 72/210/98 71/207/98 
s 8
f 72/126/99 112/217/99 111/218/99 
f 111/218/99 69/123/99 72/126/99 
s 16
f 95/185/93 87/184/93 106/201/93 
f 106/201/93 111/203/93 95/185/93 
f 86/188/91 91/187/91 108/204/91 
f 108/204/91 105/206/91 86/188/91 
f 90/189/95 94/153/95 110/172/95 
f 110/172/95 107/208/95 90/189/95 
f 93/152/94 96/190/94 112/209/94 
f 112/209/94 109/171/94 93/152/94 
# 216 faces

